<svg id="图层_1" data-name="图层 1" xmlns="http://www.w3.org/2000/svg" viewBox="0 0 32 32"><defs><style>.cls-1{fill:#fff;}</style></defs><title>logo</title><rect class="cls-1" x="0.03" y="19.34" width="8.16" height="1.97"/><rect class="cls-1" x="0.03" y="10.69" width="8.16" height="1.97"/><path class="cls-1" d="M23.71,15l.06.33a3.65,3.65,0,0,1,0,.66,3.65,3.65,0,0,1,0,.66l-.06.33H32V15Z"/><path class="cls-1" d="M19.15,8.25l.06,0H30.13L29,6.31H0v2H8.19v-1h6.86A8.59,8.59,0,0,1,19.15,8.25Z"/><path class="cls-1" d="M26.41,3.48A14.76,14.76,0,0,0,24.57,2L24.5,2H0V4H26.92Z"/><path class="cls-1" d="M22.3,11.13a6.87,6.87,0,0,1,.78,1.37l.07.16h8.5l-.07-.33c0-.16-.08-.37-.14-.61a8.2,8.2,0,0,0-.3-.86l-.07-.17H22Z"/><rect class="cls-1" x="0.03" y="15.01" width="8.16" height="1.97"/><rect class="cls-1" x="0.03" y="23.67" width="8.16" height="1.97"/><path class="cls-1" d="M23.08,19.5a6.87,6.87,0,0,1-.78,1.37l-.35.45h9.12l.07-.18a8.2,8.2,0,0,0,.3-.86c.06-.25.11-.45.14-.61l.07-.33h-8.5Z"/><path class="cls-1" d="M19.15,23.71a8.13,8.13,0,0,1-4.1,1.06H10.68l-.37.87H29l.08-.12c.28-.45.57-.93.86-1.44l.23-.41H19.21Z"/><rect class="cls-1" x="0.03" y="28.05" width="8.16" height="1.97"/><path class="cls-1" d="M8.47,30h16l.07-.05a14.76,14.76,0,0,0,1.84-1.45l.51-.47H9.3Z"/></svg>